<svg xmlns="http://www.w3.org/2000/svg" viewBox="0 0 512 512">
  <defs>
    <radialGradient id="bg" cx="30%" cy="20%" r="90%">
      <stop offset="0%" stop-color="#17304f"/>
      <stop offset="100%" stop-color="#07111c"/>
    </radialGradient>
    <linearGradient id="accent" x1="0%" y1="0%" x2="100%" y2="100%">
      <stop offset="0%" stop-color="#1fc7b6"/>
      <stop offset="100%" stop-color="#6be7d5"/>
    </linearGradient>
    <linearGradient id="accent2" x1="0%" y1="0%" x2="100%" y2="100%">
      <stop offset="0%" stop-color="#5c82ff"/>
      <stop offset="100%" stop-color="#84a0ff"/>
    </linearGradient>
  </defs>
  <circle cx="256" cy="256" r="256" fill="url(#bg)"/>
  <circle cx="256" cy="256" r="220" fill="none" stroke="rgba(255,255,255,0.08)" stroke-width="2"/>
  <path d="M256 86l114 40v93c0 81-46 137-114 177-68-40-114-96-114-177v-93l114-40z" fill="url(#accent)"/>
  <path d="M256 116l87 31v70c0 63-32 105-87 139-55-34-87-76-87-139v-70l87-31z" fill="#091320"/>
  <path d="M205 194l-40 44 40 44" fill="none" stroke="#9ef8ec" stroke-linecap="round" stroke-linejoin="round" stroke-width="22"/>
  <path d="M307 194l40 44-40 44" fill="none" stroke="#9ef8ec" stroke-linecap="round" stroke-linejoin="round" stroke-width="22"/>
  <path d="M237 311h38" stroke="url(#accent2)" stroke-linecap="round" stroke-width="22"/>
  <circle cx="386" cy="136" r="28" fill="url(#accent2)"/>
  <circle cx="386" cy="136" r="12" fill="#07111c"/>
</svg>
