<svg xmlns="http://www.w3.org/2000/svg" viewBox="0 0 1600 420" preserveAspectRatio="xMidYMid slice">
  <defs>
    <linearGradient id="bg" x1="0%" y1="0%" x2="100%" y2="100%">
      <stop offset="0%" stop-color="#08131f"/>
      <stop offset="50%" stop-color="#0c2034"/>
      <stop offset="100%" stop-color="#0b1524"/>
    </linearGradient>
    <radialGradient id="glow" cx="25%" cy="20%" r="50%">
      <stop offset="0%" stop-color="rgba(31,199,182,0.6)"/>
      <stop offset="100%" stop-color="rgba(31,199,182,0)"/>
    </radialGradient>
    <pattern id="grid" width="48" height="48" patternUnits="userSpaceOnUse">
      <path d="M48 0H0V48" fill="none" stroke="rgba(255,255,255,0.08)" stroke-width="1"/>
    </pattern>
  </defs>
  <rect width="1600" height="420" fill="url(#bg)"/>
  <rect width="1600" height="420" fill="url(#grid)"/>
  <circle cx="300" cy="120" r="220" fill="url(#glow)"/>
  <g transform="translate(170 118)">
    <rect x="0" y="0" width="340" height="170" rx="28" fill="rgba(255,255,255,0.06)" stroke="rgba(255,255,255,0.1)"/>
    <rect x="28" y="30" width="82" height="12" rx="6" fill="#1fc7b6"/>
    <rect x="28" y="64" width="184" height="10" rx="5" fill="rgba(255,255,255,0.18)"/>
    <rect x="28" y="92" width="248" height="10" rx="5" fill="rgba(255,255,255,0.14)"/>
    <rect x="28" y="120" width="126" height="10" rx="5" fill="rgba(255,255,255,0.14)"/>
    <circle cx="286" cy="122" r="22" fill="rgba(92,130,255,0.25)" stroke="#5c82ff"/>
  </g>
  <path d="M920 72l120 42v96c0 76-44 126-120 170-76-44-120-94-120-170v-96l120-42z" fill="rgba(255,255,255,0.06)" stroke="rgba(255,255,255,0.12)"/>
  <path d="M920 108l78 27v63c0 48-24 84-78 118-54-34-78-70-78-118v-63l78-27z" fill="#08131f" stroke="rgba(31,199,182,0.48)"/>
  <path d="M884 166l-28 30 28 30" fill="none" stroke="#9ef8ec" stroke-linecap="round" stroke-linejoin="round" stroke-width="16"/>
  <path d="M956 166l28 30-28 30" fill="none" stroke="#9ef8ec" stroke-linecap="round" stroke-linejoin="round" stroke-width="16"/>
  <path d="M906 244h28" stroke="#5c82ff" stroke-linecap="round" stroke-width="16"/>
</svg>
