<svg xmlns="http://www.w3.org/2000/svg" viewBox="0 0 1600 900" preserveAspectRatio="xMidYMid slice">
  <defs>
    <linearGradient id="bg" x1="0%" y1="0%" x2="100%" y2="100%">
      <stop offset="0%" stop-color="#eefcff"/>
      <stop offset="55%" stop-color="#edf4ff"/>
      <stop offset="100%" stop-color="#f6fbff"/>
    </linearGradient>
    <radialGradient id="glow1" cx="18%" cy="18%" r="42%">
      <stop offset="0%" stop-color="rgba(31,199,182,0.35)"/>
      <stop offset="100%" stop-color="rgba(31,199,182,0)"/>
    </radialGradient>
    <radialGradient id="glow2" cx="78%" cy="24%" r="30%">
      <stop offset="0%" stop-color="rgba(92,130,255,0.24)"/>
      <stop offset="100%" stop-color="rgba(92,130,255,0)"/>
    </radialGradient>
    <pattern id="grid" width="64" height="64" patternUnits="userSpaceOnUse">
      <path d="M64 0H0V64" fill="none" stroke="rgba(8,34,58,0.08)" stroke-width="1"/>
    </pattern>
  </defs>
  <rect width="1600" height="900" fill="url(#bg)"/>
  <rect width="1600" height="900" fill="url(#grid)"/>
  <circle cx="260" cy="160" r="340" fill="url(#glow1)"/>
  <circle cx="1260" cy="170" r="250" fill="url(#glow2)"/>
  <g fill="none" stroke="rgba(11,34,54,0.16)">
    <path d="M0 740C240 620 460 610 680 700s430 90 620-10 220-102 300-80"/>
    <path d="M0 790C240 670 460 660 680 750s430 90 620-10 220-102 300-80"/>
  </g>
  <g fill="rgba(8,34,58,0.2)">
    <rect x="132" y="182" width="190" height="18" rx="9"/>
    <rect x="132" y="218" width="260" height="10" rx="5"/>
    <rect x="1018" y="154" width="260" height="18" rx="9"/>
    <rect x="1018" y="190" width="330" height="10" rx="5"/>
    <rect x="1018" y="222" width="220" height="10" rx="5"/>
  </g>
  <g transform="translate(1140 520)">
    <rect x="0" y="0" width="280" height="190" rx="26" fill="rgba(255,255,255,0.56)" stroke="rgba(8,34,58,0.12)"/>
    <rect x="28" y="34" width="98" height="12" rx="6" fill="#1fc7b6"/>
    <rect x="28" y="68" width="190" height="10" rx="5" fill="rgba(8,34,58,0.2)"/>
    <rect x="28" y="96" width="224" height="10" rx="5" fill="rgba(8,34,58,0.14)"/>
    <rect x="28" y="124" width="140" height="10" rx="5" fill="rgba(8,34,58,0.14)"/>
    <circle cx="228" cy="140" r="24" fill="rgba(92,130,255,0.18)" stroke="#5c82ff"/>
  </g>
</svg>
